<svg width="144" height="144" viewBox="0 0 144 144" fill="none" xmlns="http://www.w3.org/2000/svg">
<path d="M121.854 106.248C133.176 93.96 132.036 78.18 132 78V30C132 28.4087 131.368 26.8826 130.243 25.7574C129.117 24.6321 127.591 24 126 24H90.0001C83.3821 24 78.0001 29.382 78.0001 36V78C78.0001 79.5913 78.6322 81.1174 79.7574 82.2426C80.8826 83.3679 82.4088 84 84.0001 84H102.468C102.341 86.9663 101.455 89.8504 99.8941 92.376C96.8461 97.182 91.1041 100.464 82.8181 102.12L78.0001 103.08V120H84.0001C100.698 120 113.436 115.374 121.854 106.248ZM55.8121 106.248C67.1401 93.96 65.9941 78.18 65.9581 78V30C65.9581 28.4087 65.3259 26.8826 64.2007 25.7574C63.0755 24.6321 61.5494 24 59.9581 24H23.9581C17.3401 24 11.9581 29.382 11.9581 36V78C11.9581 79.5913 12.5902 81.1174 13.7154 82.2426C14.8406 83.3679 16.3668 84 17.9581 84H36.4261C36.2993 86.9663 35.413 89.8504 33.8521 92.376C30.8041 97.182 25.0621 100.464 16.7761 102.12L11.9581 103.08V120H17.9581C34.6561 120 47.3941 115.374 55.8121 106.248Z" fill="#8103FF" fill-opacity="0.39"/>
</svg>
